<?xml version="1.0" encoding="UTF-8"?>
<svg id="a" data-name="Layer 1" xmlns="http://www.w3.org/2000/svg" viewBox="0 0 53.53 9.35">
  <defs>
    <style>
      .b {
        fill: #acabab;
        stroke-width: 0px;
      }
    </style>
  </defs>
  <polygon class="b" points="4.92 0 6.08 3.57 9.83 3.57 6.79 5.78 7.95 9.35 4.92 7.14 1.88 9.35 3.04 5.78 0 3.57 3.76 3.57 4.92 0"/>
  <polygon class="b" points="15.84 0 17 3.57 20.76 3.57 17.72 5.78 18.88 9.35 15.84 7.14 12.8 9.35 13.96 5.78 10.92 3.57 14.68 3.57 15.84 0"/>
  <polygon class="b" points="26.76 0 27.93 3.57 31.68 3.57 28.64 5.78 29.8 9.35 26.76 7.14 23.73 9.35 24.89 5.78 21.85 3.57 25.6 3.57 26.76 0"/>
  <polygon class="b" points="37.69 0 38.85 3.57 42.61 3.57 39.57 5.78 40.73 9.35 37.69 7.14 34.65 9.35 35.81 5.78 32.77 3.57 36.53 3.57 37.69 0"/>
  <polygon class="b" points="48.61 0 49.77 3.57 53.53 3.57 50.49 5.78 51.65 9.35 48.61 7.14 45.58 9.35 46.74 5.78 43.7 3.57 47.45 3.57 48.61 0"/>
</svg>